Coordinates
version=1
nRows=8
nColumns=61
inDegrees=yes

Units are S.I. units (second, meters, Newtons, ...)
Angles are in degrees.

endheader
time	pelvis_tilt	pelvis_list	pelvis_rotation	pelvis_tx	pelvis_ty	pelvis_tz	hip_flexion_r	hip_adduction_r	hip_rotation_r	knee_angle_r	knee_angle_r_beta	ankle_angle_r	subtalar_angle_r	mtp_angle_r	hip_flexion_l	hip_adduction_l	hip_rotation_l	knee_angle_l	knee_angle_l_beta	ankle_angle_l	subtalar_angle_l	mtp_angle_l	lumbar_extension	lumbar_bending	lumbar_rotation	arm_flex_r	arm_add_r	arm_rot_r	elbow_flex_r	pro_sup_r	wrist_flex_r	wrist_dev_r	arm_flex_l	arm_add_l	arm_rot_l	elbow_flex_l	pro_sup_l	wrist_flex_l	wrist_dev_l	rightChainstay_rx	rightChainstay_ry	rightChainstay_rz	leftChainstay_rx	leftChainstay_ry	leftChainstay_rz	steeringTube_rx	steeringTube_ry	steeringTube_rz	frontWheel_rx	frontWheel_ry	frontWheel_rz	seatpost_tx	saddle_rz	saddle_tx	saddle_ty	crankSpindle_rx	crankSpindle_ry	crankSpindle_rz	leftPedal_rz	rightPedal_rz
      7.50500000	     -5.56189465	      8.11907379	      7.06055548	      0.13483306	      1.12562826	     -0.24589807	     45.66892415	    -21.29038485	     -4.11662597	     76.82540065	      1.34085619	    -19.77567792	      4.96906084	    -20.00000000	     65.39602543	     -0.27929042	    -10.04265308	     76.63124896	      1.33746760	     22.80598440	      6.33498917	    -20.00000000	    -74.76722022	      5.68050261	     -4.99915188	    113.15229124	     -1.84857250	     68.76184486	      2.66981603	     21.78327654	      0.00000000	      0.00000000	    112.52207871	     -1.19509538	     86.49624359	      0.13191255	      2.91549920	     -0.00000000	      0.00000000	194594432.67895076	      0.00000000	      0.00000000	194594432.67895076	     -0.00000000	     -0.00000000	      0.00000000	     -3.57234898	      0.00000000	     -0.00000000	265637641.78848368	     -0.00000000	     -0.00000000	     -0.00000000	      0.00000000	      0.00000000	      0.00000000	   4118.77132445	     -0.00000000	   4139.03439495	   4077.82404202
      7.51000000	     -5.31571713	      7.87114033	      6.96615373	      0.13515068	      1.12538966	     -0.24644409	     46.62913240	    -21.08307487	     -3.22009876	     79.28995506	      1.38387078	    -19.25546916	      5.09577377	    -20.00000000	     63.60991560	     -0.32716999	    -10.09067951	     73.85281270	      1.28897474	     22.13054281	      6.32063273	    -20.00000000	    -74.95616110	      5.79890961	     -4.60947601	    113.11262123	     -1.85487604	     68.85565873	      2.67802045	     21.68841937	      0.00000000	     -0.00000000	    112.48466803	     -1.19604771	     86.48928278	      0.13248164	      2.92325787	      0.00000000	     -0.00000000	194594432.67895076	      0.00000000	      0.00000000	194594432.67895076	     -0.00000000	     -0.00000000	     -0.00000000	     -3.90535793	     -0.00000000	     -0.00000000	265637641.78848368	     -0.00000000	     -0.00000000	      0.00000000	     -0.00000000	      0.00000000	      0.00000000	   4122.68379010	     -0.00000000	   4143.47127320	   4080.80071989
      7.51500000	     -5.04916041	      7.75074068	      6.70673451	      0.13562287	      1.12512436	     -0.24671756	     47.70817097	    -20.84299564	     -2.11944210	     81.80528408	      1.42777155	    -18.67829880	      5.19516724	    -20.00000000	     61.75715411	     -0.49328490	    -10.38158396	     71.11330124	      1.24116125	     21.06972178	      6.30248579	    -20.00000000	    -75.18577196	      5.61963990	     -4.39004993	    113.06978011	     -1.89257038	     69.40492514	      2.72675686	     21.13327575	     -0.00000000	     -0.00000000	    112.45443684	     -1.20100970	     86.45034861	      0.13520378	      2.96663437	     -0.00000000	     -0.00000000	194594432.35903555	      0.00000000	      0.00000000	194594432.35903555	     -0.00000000	     -0.00000000	      0.00000000	     -4.09582548	      0.00000000	      0.00000000	265637641.78848368	      0.00000000	     -0.00000000	      0.00000000	      0.00000000	     -0.00000000	     -0.00000000	   4126.62383198	      0.00000000	   4147.50915203	   4083.89446500
      7.52000000	     -4.71750576	      7.32617964	      6.60782632	      0.13604097	      1.12476785	     -0.24729159	     48.60218832	    -20.47477036	     -1.45543540	     84.25685549	      1.47055955	    -18.03805267	      5.27579939	    -20.00000000	     59.93641117	     -0.69557440	    -10.32385833	     68.48758536	      1.19533386	     19.95295117	      6.33493215	    -20.00000000	    -75.43136984	      5.70251130	     -3.93451647	    113.01414917	     -1.89061579	     69.46676823	      2.72598507	     21.06947981	     -0.00000000	      0.00000000	    112.40202997	     -1.20485769	     86.40885282	      0.13861643	      3.01013051	     -0.00000000	      0.00000000	194594432.35903555	      0.00000000	      0.00000000	194594432.35903555	     -0.00000000	     -0.00000000	     -0.00000000	     -4.28557728	     -0.00000000	      0.00000000	265637641.78848368	      0.00000000	     -0.00000000	      0.00000000	     -0.00000000	     -0.00000000	     -0.00000000	   4130.54893366	      0.00000000	   4151.40768437	   4087.07491069
      7.52500000	     -4.39364382	      7.01599460	      6.40129844	      0.13650443	      1.12452307	     -0.24771930	     49.60067029	    -20.07906524	     -0.60860841	     86.67458281	      1.51275685	    -17.40349853	      5.36953869	    -20.00000000	     58.05340771	     -0.96145645	    -10.49284940	     65.86983996	      1.14964559	     18.51565533	      6.31832756	    -20.00000000	    -75.72083187	      5.59031694	     -3.58948795	    112.99340257	     -1.88499221	     69.52300462	      2.72147191	     21.01027358	      0.00000000	     -0.00000000	    112.38583852	     -1.20957098	     86.33748096	      0.14267465	      3.08468776	      0.00000000	     -0.00000000	194594432.35903555	      0.00000000	      0.00000000	194594432.35903555	     -0.00000000	     -0.00000000	      0.00000000	     -4.42508981	      0.00000000	     -0.00000000	265637641.78848368	     -0.00000000	      0.00000000	      0.00000000	      0.00000000	     -0.00000000	     -0.00000000	   4134.49200296	     -0.00000000	   4154.96875396	   4090.35585122
      7.53000000	     -4.08092763	      6.56421107	      6.21836631	      0.13702229	      1.12415262	     -0.24826906	     50.60090907	    -19.58436165	      0.06863476	     89.05515210	      1.55430562	    -16.78249070	      5.44471326	    -20.00000000	     56.18573641	     -1.27504716	    -10.51525783	     63.32643394	      1.10525478	     17.32244287	      6.39078608	    -20.00000000	    -75.94987965	      5.53437203	     -3.13580422	    112.91865240	     -1.87659381	     69.57699308	      2.71412849	     20.95274649	      0.00000000	      0.00000000	    112.31643118	     -1.21555541	     86.24934961	      0.14790779	      3.17667114	     -0.00000000	      0.00000000	194594432.35903555	      0.00000000	      0.00000000	194594432.35903555	     -0.00000000	     -0.00000000	      0.00000000	     -4.56211978	      0.00000000	      0.00000000	265637641.78848368	     -0.00000000	      0.00000000	      0.00000000	      0.00000000	      0.00000000	     -0.00000000	   4138.35533845	     -0.00000000	   4158.59591881	   4093.62115140
      7.53500000	     -3.75891951	      6.18617666	      5.91741723	      0.13750648	      1.12388987	     -0.24871460	     51.65999467	    -19.02998964	      0.88167119	     91.36879477	      1.59468630	    -16.08506560	      5.55266418	    -20.00000000	     54.24897359	     -1.65064662	    -10.74876207	     60.77126277	      1.06065863	     15.79250023	      6.41547625	    -20.00000000	    -76.24541123	      5.29865489	     -2.76419831	    112.90041548	     -1.86368908	     69.62664180	      2.70216334	     20.89873328	      0.00000000	      0.00000000	    112.30469065	     -1.22373088	     86.13638176	      0.15520430	      3.29446718	      0.00000000	      0.00000000	194594432.35903555	      0.00000000	      0.00000000	194594432.35903555	     -0.00000000	     -0.00000000	     -0.00000000	     -4.65188860	     -0.00000000	     -0.00000000	265637641.78848368	     -0.00000000	     -0.00000000	      0.00000000	      0.00000000	     -0.00000000	     -0.00000000	   4142.26184814	      0.00000000	   4161.90936716	   4097.09509711
      7.54000000	     -3.47379603	      5.84219305	      5.53428414	      0.13803688	      1.12371381	     -0.24903307	     52.81150778	    -18.39682310	      1.76199709	     93.63874589	      1.63430442	    -15.33070848	      5.67491284	    -20.00000000	     52.27625094	     -2.06211203	    -11.10151927	     58.20154411	      1.01580857	     14.24510941	      6.47023768	    -20.00000000	    -76.52467685	      4.92223802	     -2.43709805	    112.88988107	     -1.84227263	     69.66362475	      2.68147484	     20.85539058	      0.00000000	     -0.00000000	    112.30331873	     -1.23459540	     85.96266398	      0.16475634	      3.47536011	      0.00000000	     -0.00000000	194594432.35903555	      0.00000000	      0.00000000	194594432.35903555	     -0.00000000	     -0.00000000	      0.00000000	     -4.70202778	      0.00000000	      0.00000000	265637641.78848368	      0.00000000	      0.00000000	     -0.00000000	     -0.00000000	     -0.00000000	      0.00000000	   4146.15870299	      0.00000000	   4165.15425374	   4100.70813702
